<?xml version="1.0" encoding="UTF-8" standalone="no"?>
<!DOCTYPE svg PUBLIC "-//W3C//DTD SVG 1.1//EN"
 "http://www.w3.org/Graphics/SVG/1.1/DTD/svg11.dtd">
<!-- Generated by graphviz version 2.40.1 (20161225.0304)
 -->
<!-- Title: oneDegreeRelationshipsDiagram Pages: 1 -->
<svg width="375pt" height="259pt"
 viewBox="0.00 0.00 375.00 259.20" xmlns="http://www.w3.org/2000/svg" xmlns:xlink="http://www.w3.org/1999/xlink">
<g id="graph0" class="graph" transform="scale(1 1) rotate(0) translate(4 255.2)">
<title>oneDegreeRelationshipsDiagram</title>
<polygon fill="#ffffff" stroke="transparent" points="-4,4 -4,-255.2 371,-255.2 371,4 -4,4"/>
<text text-anchor="middle" x="72.4936" y="-7.3" font-family="Helvetica,sans-Serif" font-size="11.00" fill="#000000">Generated by SchemaSpy</text>
<!-- commentaire -->
<g id="node1" class="node">
<title>commentaire</title>
<g id="a_node1"><a xlink:href="../../tables/commentaire.html" xlink:title="commentaire" target="_top">
<polygon fill="#ffffff" stroke="transparent" points="149,-84.7 149,-240.7 359,-240.7 359,-84.7 149,-84.7"/>
<polygon fill="#f5f5f5" stroke="transparent" points="151,-215.7 151,-238.7 357,-238.7 357,-215.7 151,-215.7"/>
<polygon fill="none" stroke="#000000" points="151,-215.7 151,-238.7 357,-238.7 357,-215.7 151,-215.7"/>
<text text-anchor="start" x="156" y="-224.8" font-family="Helvetica,sans-Serif" font-weight="bold" font-size="11.00" fill="#000000">commentaire</text>
<text text-anchor="start" x="322.0437" y="-223.8" font-family="Helvetica,sans-Serif" font-size="11.00" fill="#000000">[table]</text>
<polygon fill="none" stroke="#000000" points="151,-193.7 151,-215.7 246,-215.7 246,-193.7 151,-193.7"/>
<image xlink:href="../../images/primaryKeys.png" width="11px" height="12px" preserveAspectRatio="xMinYMin meet" x="156" y="-210.7"/>
<text text-anchor="start" x="171" y="-200.8" font-family="Helvetica,sans-Serif" font-size="11.00" fill="#000000">id</text>
<polygon fill="none" stroke="#000000" points="246,-193.7 246,-215.7 357,-215.7 357,-193.7 246,-193.7"/>
<text text-anchor="start" x="249" y="-201.4" font-family="Helvetica,sans-Serif" font-size="11.00" fill="#000000">int[10]</text>
<polygon fill="#ffffff" stroke="transparent" points="151,-171.7 151,-193.7 246,-193.7 246,-171.7 151,-171.7"/>
<polygon fill="none" stroke="#000000" points="151,-171.7 151,-193.7 246,-193.7 246,-171.7 151,-171.7"/>
<image xlink:href="../../images/foreignKeys.png" width="11px" height="12px" preserveAspectRatio="xMinYMin meet" x="156" y="-188.7"/>
<text text-anchor="start" x="171" y="-178.8" font-family="Helvetica,sans-Serif" font-size="11.00" fill="#000000">article_id</text>
<polygon fill="none" stroke="#000000" points="246,-171.7 246,-193.7 357,-193.7 357,-171.7 246,-171.7"/>
<text text-anchor="start" x="249" y="-179.4" font-family="Helvetica,sans-Serif" font-size="11.00" fill="#000000">int[10]</text>
<polygon fill="none" stroke="#000000" points="151,-149.7 151,-171.7 246,-171.7 246,-149.7 151,-149.7"/>
<text text-anchor="start" x="171" y="-156.8" font-family="Helvetica,sans-Serif" font-size="11.00" fill="#000000">contenu</text>
<polygon fill="none" stroke="#000000" points="246,-149.7 246,-171.7 357,-171.7 357,-149.7 246,-149.7"/>
<text text-anchor="start" x="248.6115" y="-157.4" font-family="Helvetica,sans-Serif" font-size="11.00" fill="#000000">longtext[2147483647]</text>
<polygon fill="none" stroke="#000000" points="151,-127.7 151,-149.7 246,-149.7 246,-127.7 151,-127.7"/>
<text text-anchor="start" x="171" y="-134.8" font-family="Helvetica,sans-Serif" font-size="11.00" fill="#000000">created_at</text>
<polygon fill="none" stroke="#000000" points="246,-127.7 246,-149.7 357,-149.7 357,-127.7 246,-127.7"/>
<text text-anchor="start" x="249" y="-135.4" font-family="Helvetica,sans-Serif" font-size="11.00" fill="#000000">datetime[19]</text>
<polygon fill="#ffffff" stroke="transparent" points="151,-105.7 151,-127.7 246,-127.7 246,-105.7 151,-105.7"/>
<polygon fill="none" stroke="#000000" points="151,-105.7 151,-127.7 246,-127.7 246,-105.7 151,-105.7"/>
<image xlink:href="../../images/foreignKeys.png" width="11px" height="12px" preserveAspectRatio="xMinYMin meet" x="156" y="-122.7"/>
<text text-anchor="start" x="171" y="-112.8" font-family="Helvetica,sans-Serif" font-size="11.00" fill="#000000">utilisateur_id</text>
<polygon fill="none" stroke="#000000" points="246,-105.7 246,-127.7 357,-127.7 357,-105.7 246,-105.7"/>
<text text-anchor="start" x="249" y="-113.4" font-family="Helvetica,sans-Serif" font-size="11.00" fill="#000000">int[10]</text>
<polygon fill="#ffffff" stroke="transparent" points="151,-86.7 151,-105.7 184,-105.7 184,-86.7 151,-86.7"/>
<polygon fill="none" stroke="#000000" points="151,-86.7 151,-105.7 184,-105.7 184,-86.7 151,-86.7"/>
<text text-anchor="start" x="154" y="-92.8" font-family="Helvetica,sans-Serif" font-size="11.00" fill="#000000">&lt; 2</text>
<polygon fill="#ffffff" stroke="transparent" points="184,-86.7 184,-105.7 246,-105.7 246,-86.7 184,-86.7"/>
<polygon fill="none" stroke="#000000" points="184,-86.7 184,-105.7 246,-105.7 246,-86.7 184,-86.7"/>
<text text-anchor="start" x="198.3807" y="-92.8" font-family="Helvetica,sans-Serif" font-size="11.00" fill="#000000">500 rows</text>
<polygon fill="#ffffff" stroke="transparent" points="246,-86.7 246,-105.7 357,-105.7 357,-86.7 246,-86.7"/>
<polygon fill="none" stroke="#000000" points="246,-86.7 246,-105.7 357,-105.7 357,-86.7 246,-86.7"/>
<text text-anchor="start" x="338.4053" y="-92.8" font-family="Helvetica,sans-Serif" font-size="11.00" fill="#000000">0 &gt;</text>
<polygon fill="none" stroke="#000000" stroke-width="2" points="150,-85.7 150,-239.7 358,-239.7 358,-85.7 150,-85.7"/>
</a>
</g>
</g>
<!-- article -->
<g id="node2" class="node">
<title>article</title>
<g id="a_node2"><a xlink:href="../../tables/article.html" xlink:title="article" target="_top">
<polygon fill="#ffffff" stroke="transparent" points="8,-142.2 8,-247.2 100,-247.2 100,-142.2 8,-142.2"/>
<polygon fill="#f5f5f5" stroke="transparent" points="8,-223.7 8,-246.7 100,-246.7 100,-223.7 8,-223.7"/>
<polygon fill="none" stroke="#000000" points="8,-223.7 8,-246.7 100,-246.7 100,-223.7 8,-223.7"/>
<text text-anchor="start" x="13" y="-232.8" font-family="Helvetica,sans-Serif" font-weight="bold" font-size="11.00" fill="#000000">article</text>
<text text-anchor="start" x="65.0437" y="-231.8" font-family="Helvetica,sans-Serif" font-size="11.00" fill="#000000">[table]</text>
<polygon fill="none" stroke="#000000" points="8,-201.7 8,-223.7 100,-223.7 100,-201.7 8,-201.7"/>
<image xlink:href="../../images/primaryKeys.png" width="11px" height="12px" preserveAspectRatio="xMinYMin meet" x="13" y="-218.7"/>
<text text-anchor="start" x="29" y="-208.8" font-family="Helvetica,sans-Serif" font-size="11.00" fill="#000000">id</text>
<polygon fill="#ffffff" stroke="transparent" points="8,-179.7 8,-201.7 100,-201.7 100,-179.7 8,-179.7"/>
<polygon fill="none" stroke="#000000" points="8,-179.7 8,-201.7 100,-201.7 100,-179.7 8,-179.7"/>
<image xlink:href="../../images/foreignKeys.png" width="11px" height="12px" preserveAspectRatio="xMinYMin meet" x="13" y="-196.7"/>
<text text-anchor="start" x="29" y="-186.8" font-family="Helvetica,sans-Serif" font-size="11.00" fill="#000000">categorie_id</text>
<polygon fill="none" stroke="#000000" points="8,-160.7 8,-179.7 100,-179.7 100,-160.7 8,-160.7"/>
<text text-anchor="start" x="11" y="-166.8" font-family="Helvetica,sans-Serif" font-size="11.00" fill="#000000">...</text>
<polygon fill="#ffffff" stroke="transparent" points="8,-141.7 8,-160.7 29,-160.7 29,-141.7 8,-141.7"/>
<polygon fill="none" stroke="#000000" points="8,-141.7 8,-160.7 29,-160.7 29,-141.7 8,-141.7"/>
<text text-anchor="start" x="10.7027" y="-147.8" font-family="Helvetica,sans-Serif" font-size="11.00" fill="#000000">&lt; 1</text>
<polygon fill="#ffffff" stroke="transparent" points="29,-141.7 29,-160.7 79,-160.7 79,-141.7 29,-141.7"/>
<polygon fill="none" stroke="#000000" points="29,-141.7 29,-160.7 79,-160.7 79,-141.7 29,-141.7"/>
<text text-anchor="start" x="31.6904" y="-147.8" font-family="Helvetica,sans-Serif" font-size="11.00" fill="#000000">100 rows</text>
<polygon fill="#ffffff" stroke="transparent" points="79,-141.7 79,-160.7 100,-160.7 100,-141.7 79,-141.7"/>
<polygon fill="none" stroke="#000000" points="79,-141.7 79,-160.7 100,-160.7 100,-141.7 79,-141.7"/>
<text text-anchor="start" x="81.7027" y="-147.8" font-family="Helvetica,sans-Serif" font-size="11.00" fill="#000000">1 &gt;</text>
</a>
</g>
</g>
<!-- commentaire&#45;&gt;article -->
<g id="edge1" class="edge">
<title>commentaire:w&#45;&gt;article:e</title>
<path fill="none" stroke="#000000" d="M136.7724,-186.622C123.9935,-194.7538 120.3394,-212.7 100,-212.7"/>
<polygon fill="#000000" stroke="#000000" points="143.2877,-184.826 151.9567,-186.1706 147.1438,-183.763 151,-182.7 151,-182.7 151,-182.7 147.1438,-183.763 150.0433,-179.2294 143.2877,-184.826 143.2877,-184.826"/>
<ellipse fill="none" stroke="#000000" cx="140.2027" cy="-185.6764" rx="3.2" ry="3.2"/>
</g>
<!-- utilisateur -->
<g id="node3" class="node">
<title>utilisateur</title>
<g id="a_node3"><a xlink:href="../../tables/utilisateur.html" xlink:title="utilisateur" target="_top">
<polygon fill="#ffffff" stroke="transparent" points="9,-38.2 9,-121.2 99,-121.2 99,-38.2 9,-38.2"/>
<polygon fill="#f5f5f5" stroke="transparent" points="9,-97.7 9,-120.7 99,-120.7 99,-97.7 9,-97.7"/>
<polygon fill="none" stroke="#000000" points="9,-97.7 9,-120.7 99,-120.7 99,-97.7 9,-97.7"/>
<text text-anchor="start" x="13.971" y="-106.8" font-family="Helvetica,sans-Serif" font-weight="bold" font-size="11.00" fill="#000000">utilisateur</text>
<text text-anchor="start" x="64.5219" y="-105.8" font-family="Helvetica,sans-Serif" font-size="11.00" fill="#000000">[table]</text>
<polygon fill="none" stroke="#000000" points="9,-75.7 9,-97.7 99,-97.7 99,-75.7 9,-75.7"/>
<image xlink:href="../../images/primaryKeys.png" width="11px" height="12px" preserveAspectRatio="xMinYMin meet" x="14" y="-92.7"/>
<text text-anchor="start" x="35" y="-82.8" font-family="Helvetica,sans-Serif" font-size="11.00" fill="#000000">id</text>
<polygon fill="none" stroke="#000000" points="9,-56.7 9,-75.7 99,-75.7 99,-56.7 9,-56.7"/>
<text text-anchor="start" x="12" y="-62.8" font-family="Helvetica,sans-Serif" font-size="11.00" fill="#000000">...</text>
<polygon fill="#ffffff" stroke="transparent" points="9,-37.7 9,-56.7 27,-56.7 27,-37.7 9,-37.7"/>
<polygon fill="none" stroke="#000000" points="9,-37.7 9,-56.7 27,-56.7 27,-37.7 9,-37.7"/>
<text text-anchor="start" x="12" y="-43.8" font-family="Helvetica,sans-Serif" font-size="11.00" fill="#000000"> &#160;</text>
<polygon fill="#ffffff" stroke="transparent" points="27,-37.7 27,-56.7 74,-56.7 74,-37.7 27,-37.7"/>
<polygon fill="none" stroke="#000000" points="27,-37.7 27,-56.7 74,-56.7 74,-37.7 27,-37.7"/>
<text text-anchor="start" x="32.4956" y="-43.8" font-family="Helvetica,sans-Serif" font-size="11.00" fill="#000000">51 rows</text>
<polygon fill="#ffffff" stroke="transparent" points="74,-37.7 74,-56.7 99,-56.7 99,-37.7 74,-37.7"/>
<polygon fill="none" stroke="#000000" points="74,-37.7 74,-56.7 99,-56.7 99,-37.7 74,-37.7"/>
<text text-anchor="start" x="80.4053" y="-43.8" font-family="Helvetica,sans-Serif" font-size="11.00" fill="#000000">1 &gt;</text>
</a>
</g>
</g>
<!-- commentaire&#45;&gt;utilisateur -->
<g id="edge2" class="edge">
<title>commentaire:w&#45;&gt;utilisateur:e</title>
<path fill="none" stroke="#000000" d="M136.9291,-113.0214C123.5728,-105.0105 119.8449,-86.7 99,-86.7"/>
<polygon fill="#000000" stroke="#000000" points="143.2601,-114.6765 150.0894,-120.1829 147.1301,-115.6883 151,-116.7 151,-116.7 151,-116.7 147.1301,-115.6883 151.9106,-113.2171 143.2601,-114.6765 143.2601,-114.6765"/>
<ellipse fill="none" stroke="#000000" cx="140.1642" cy="-113.8671" rx="3.2" ry="3.2"/>
</g>
</g>
</svg>
