<?xml version="1.0" encoding="UTF-8" standalone="no"?>
<!DOCTYPE svg PUBLIC "-//W3C//DTD SVG 1.1//EN"
 "http://www.w3.org/Graphics/SVG/1.1/DTD/svg11.dtd">
<!-- Generated by graphviz version 2.40.1 (20161225.0304)
 -->
<!-- Title: twoDegreesRelationshipsDiagram Pages: 1 -->
<svg width="512pt" height="259pt"
 viewBox="0.00 0.00 512.00 259.20" xmlns="http://www.w3.org/2000/svg" xmlns:xlink="http://www.w3.org/1999/xlink">
<g id="graph0" class="graph" transform="scale(1 1) rotate(0) translate(4 255.2)">
<title>twoDegreesRelationshipsDiagram</title>
<polygon fill="#ffffff" stroke="transparent" points="-4,4 -4,-255.2 508,-255.2 508,4 -4,4"/>
<text text-anchor="middle" x="72.4936" y="-7.3" font-family="Helvetica,sans-Serif" font-size="11.00" fill="#000000">Generated by SchemaSpy</text>
<!-- article -->
<g id="node1" class="node">
<title>article</title>
<g id="a_node1"><a xlink:href="../../tables/article.html" xlink:title="article" target="_top">
<polygon fill="#ffffff" stroke="transparent" points="145,-142.2 145,-247.2 237,-247.2 237,-142.2 145,-142.2"/>
<polygon fill="#f5f5f5" stroke="transparent" points="145,-223.7 145,-246.7 237,-246.7 237,-223.7 145,-223.7"/>
<polygon fill="none" stroke="#000000" points="145,-223.7 145,-246.7 237,-246.7 237,-223.7 145,-223.7"/>
<text text-anchor="start" x="150" y="-232.8" font-family="Helvetica,sans-Serif" font-weight="bold" font-size="11.00" fill="#000000">article</text>
<text text-anchor="start" x="202.0437" y="-231.8" font-family="Helvetica,sans-Serif" font-size="11.00" fill="#000000">[table]</text>
<polygon fill="none" stroke="#000000" points="145,-201.7 145,-223.7 237,-223.7 237,-201.7 145,-201.7"/>
<image xlink:href="../../images/primaryKeys.png" width="11px" height="12px" preserveAspectRatio="xMinYMin meet" x="150" y="-218.7"/>
<text text-anchor="start" x="166" y="-208.8" font-family="Helvetica,sans-Serif" font-size="11.00" fill="#000000">id</text>
<polygon fill="#ffffff" stroke="transparent" points="145,-179.7 145,-201.7 237,-201.7 237,-179.7 145,-179.7"/>
<polygon fill="none" stroke="#000000" points="145,-179.7 145,-201.7 237,-201.7 237,-179.7 145,-179.7"/>
<image xlink:href="../../images/foreignKeys.png" width="11px" height="12px" preserveAspectRatio="xMinYMin meet" x="150" y="-196.7"/>
<text text-anchor="start" x="166" y="-186.8" font-family="Helvetica,sans-Serif" font-size="11.00" fill="#000000">categorie_id</text>
<polygon fill="none" stroke="#000000" points="145,-160.7 145,-179.7 237,-179.7 237,-160.7 145,-160.7"/>
<text text-anchor="start" x="148" y="-166.8" font-family="Helvetica,sans-Serif" font-size="11.00" fill="#000000">...</text>
<polygon fill="#ffffff" stroke="transparent" points="145,-141.7 145,-160.7 166,-160.7 166,-141.7 145,-141.7"/>
<polygon fill="none" stroke="#000000" points="145,-141.7 145,-160.7 166,-160.7 166,-141.7 145,-141.7"/>
<text text-anchor="start" x="147.7027" y="-147.8" font-family="Helvetica,sans-Serif" font-size="11.00" fill="#000000">&lt; 1</text>
<polygon fill="#ffffff" stroke="transparent" points="166,-141.7 166,-160.7 216,-160.7 216,-141.7 166,-141.7"/>
<polygon fill="none" stroke="#000000" points="166,-141.7 166,-160.7 216,-160.7 216,-141.7 166,-141.7"/>
<text text-anchor="start" x="168.6904" y="-147.8" font-family="Helvetica,sans-Serif" font-size="11.00" fill="#000000">100 rows</text>
<polygon fill="#ffffff" stroke="transparent" points="216,-141.7 216,-160.7 237,-160.7 237,-141.7 216,-141.7"/>
<polygon fill="none" stroke="#000000" points="216,-141.7 216,-160.7 237,-160.7 237,-141.7 216,-141.7"/>
<text text-anchor="start" x="218.7027" y="-147.8" font-family="Helvetica,sans-Serif" font-size="11.00" fill="#000000">1 &gt;</text>
</a>
</g>
</g>
<!-- categorie -->
<g id="node2" class="node">
<title>categorie</title>
<g id="a_node2"><a xlink:href="../../tables/categorie.html" xlink:title="categorie" target="_top">
<polygon fill="#ffffff" stroke="transparent" points="8,-163.2 8,-224.2 96,-224.2 96,-163.2 8,-163.2"/>
<polygon fill="#f5f5f5" stroke="transparent" points="8,-200.7 8,-223.7 96,-223.7 96,-200.7 8,-200.7"/>
<polygon fill="none" stroke="#000000" points="8,-200.7 8,-223.7 96,-223.7 96,-200.7 8,-200.7"/>
<text text-anchor="start" x="12.8829" y="-209.8" font-family="Helvetica,sans-Serif" font-weight="bold" font-size="11.00" fill="#000000">categorie</text>
<text text-anchor="start" x="61.5219" y="-208.8" font-family="Helvetica,sans-Serif" font-size="11.00" fill="#000000">[table]</text>
<polygon fill="none" stroke="#000000" points="8,-181.7 8,-200.7 96,-200.7 96,-181.7 8,-181.7"/>
<text text-anchor="start" x="11" y="-187.8" font-family="Helvetica,sans-Serif" font-size="11.00" fill="#000000">...</text>
<polygon fill="#ffffff" stroke="transparent" points="8,-162.7 8,-181.7 28,-181.7 28,-162.7 8,-162.7"/>
<polygon fill="none" stroke="#000000" points="8,-162.7 8,-181.7 28,-181.7 28,-162.7 8,-162.7"/>
<text text-anchor="start" x="11" y="-168.8" font-family="Helvetica,sans-Serif" font-size="11.00" fill="#000000"> &#160;</text>
<polygon fill="#ffffff" stroke="transparent" points="28,-162.7 28,-181.7 70,-181.7 70,-162.7 28,-162.7"/>
<polygon fill="none" stroke="#000000" points="28,-162.7 28,-181.7 70,-181.7 70,-162.7 28,-162.7"/>
<text text-anchor="start" x="34.6105" y="-168.8" font-family="Helvetica,sans-Serif" font-size="11.00" fill="#000000">9 rows</text>
<polygon fill="#ffffff" stroke="transparent" points="70,-162.7 70,-181.7 96,-181.7 96,-162.7 70,-162.7"/>
<polygon fill="none" stroke="#000000" points="70,-162.7 70,-181.7 96,-181.7 96,-162.7 70,-162.7"/>
<text text-anchor="start" x="77.4053" y="-168.8" font-family="Helvetica,sans-Serif" font-size="11.00" fill="#000000">1 &gt;</text>
</a>
</g>
</g>
<!-- article&#45;&gt;categorie -->
<g id="edge1" class="edge">
<title>article:w&#45;&gt;categorie:e</title>
<path fill="none" stroke="#000000" d="M130.4909,-190.7C119.1774,-190.7 111.9931,-190.7 96,-190.7"/>
<polygon fill="#000000" stroke="#000000" points="137,-190.7001 145,-194.3 141,-190.7 145,-190.7 145,-190.7 145,-190.7 141,-190.7 145,-187.1 137,-190.7001 137,-190.7001"/>
<ellipse fill="none" stroke="#000000" cx="133.8" cy="-190.7001" rx="3.2" ry="3.2"/>
</g>
<!-- commentaire -->
<g id="node3" class="node">
<title>commentaire</title>
<g id="a_node3"><a xlink:href="../../tables/commentaire.html" xlink:title="commentaire" target="_top">
<polygon fill="#ffffff" stroke="transparent" points="286,-84.7 286,-240.7 496,-240.7 496,-84.7 286,-84.7"/>
<polygon fill="#f5f5f5" stroke="transparent" points="288,-215.7 288,-238.7 494,-238.7 494,-215.7 288,-215.7"/>
<polygon fill="none" stroke="#000000" points="288,-215.7 288,-238.7 494,-238.7 494,-215.7 288,-215.7"/>
<text text-anchor="start" x="293" y="-224.8" font-family="Helvetica,sans-Serif" font-weight="bold" font-size="11.00" fill="#000000">commentaire</text>
<text text-anchor="start" x="459.0437" y="-223.8" font-family="Helvetica,sans-Serif" font-size="11.00" fill="#000000">[table]</text>
<polygon fill="none" stroke="#000000" points="288,-193.7 288,-215.7 383,-215.7 383,-193.7 288,-193.7"/>
<image xlink:href="../../images/primaryKeys.png" width="11px" height="12px" preserveAspectRatio="xMinYMin meet" x="293" y="-210.7"/>
<text text-anchor="start" x="308" y="-200.8" font-family="Helvetica,sans-Serif" font-size="11.00" fill="#000000">id</text>
<polygon fill="none" stroke="#000000" points="383,-193.7 383,-215.7 494,-215.7 494,-193.7 383,-193.7"/>
<text text-anchor="start" x="386" y="-201.4" font-family="Helvetica,sans-Serif" font-size="11.00" fill="#000000">int[10]</text>
<polygon fill="#ffffff" stroke="transparent" points="288,-171.7 288,-193.7 383,-193.7 383,-171.7 288,-171.7"/>
<polygon fill="none" stroke="#000000" points="288,-171.7 288,-193.7 383,-193.7 383,-171.7 288,-171.7"/>
<image xlink:href="../../images/foreignKeys.png" width="11px" height="12px" preserveAspectRatio="xMinYMin meet" x="293" y="-188.7"/>
<text text-anchor="start" x="308" y="-178.8" font-family="Helvetica,sans-Serif" font-size="11.00" fill="#000000">article_id</text>
<polygon fill="none" stroke="#000000" points="383,-171.7 383,-193.7 494,-193.7 494,-171.7 383,-171.7"/>
<text text-anchor="start" x="386" y="-179.4" font-family="Helvetica,sans-Serif" font-size="11.00" fill="#000000">int[10]</text>
<polygon fill="none" stroke="#000000" points="288,-149.7 288,-171.7 383,-171.7 383,-149.7 288,-149.7"/>
<text text-anchor="start" x="308" y="-156.8" font-family="Helvetica,sans-Serif" font-size="11.00" fill="#000000">contenu</text>
<polygon fill="none" stroke="#000000" points="383,-149.7 383,-171.7 494,-171.7 494,-149.7 383,-149.7"/>
<text text-anchor="start" x="385.6115" y="-157.4" font-family="Helvetica,sans-Serif" font-size="11.00" fill="#000000">longtext[2147483647]</text>
<polygon fill="none" stroke="#000000" points="288,-127.7 288,-149.7 383,-149.7 383,-127.7 288,-127.7"/>
<text text-anchor="start" x="308" y="-134.8" font-family="Helvetica,sans-Serif" font-size="11.00" fill="#000000">created_at</text>
<polygon fill="none" stroke="#000000" points="383,-127.7 383,-149.7 494,-149.7 494,-127.7 383,-127.7"/>
<text text-anchor="start" x="386" y="-135.4" font-family="Helvetica,sans-Serif" font-size="11.00" fill="#000000">datetime[19]</text>
<polygon fill="#ffffff" stroke="transparent" points="288,-105.7 288,-127.7 383,-127.7 383,-105.7 288,-105.7"/>
<polygon fill="none" stroke="#000000" points="288,-105.7 288,-127.7 383,-127.7 383,-105.7 288,-105.7"/>
<image xlink:href="../../images/foreignKeys.png" width="11px" height="12px" preserveAspectRatio="xMinYMin meet" x="293" y="-122.7"/>
<text text-anchor="start" x="308" y="-112.8" font-family="Helvetica,sans-Serif" font-size="11.00" fill="#000000">utilisateur_id</text>
<polygon fill="none" stroke="#000000" points="383,-105.7 383,-127.7 494,-127.7 494,-105.7 383,-105.7"/>
<text text-anchor="start" x="386" y="-113.4" font-family="Helvetica,sans-Serif" font-size="11.00" fill="#000000">int[10]</text>
<polygon fill="#ffffff" stroke="transparent" points="288,-86.7 288,-105.7 321,-105.7 321,-86.7 288,-86.7"/>
<polygon fill="none" stroke="#000000" points="288,-86.7 288,-105.7 321,-105.7 321,-86.7 288,-86.7"/>
<text text-anchor="start" x="291" y="-92.8" font-family="Helvetica,sans-Serif" font-size="11.00" fill="#000000">&lt; 2</text>
<polygon fill="#ffffff" stroke="transparent" points="321,-86.7 321,-105.7 383,-105.7 383,-86.7 321,-86.7"/>
<polygon fill="none" stroke="#000000" points="321,-86.7 321,-105.7 383,-105.7 383,-86.7 321,-86.7"/>
<text text-anchor="start" x="335.3807" y="-92.8" font-family="Helvetica,sans-Serif" font-size="11.00" fill="#000000">500 rows</text>
<polygon fill="#ffffff" stroke="transparent" points="383,-86.7 383,-105.7 494,-105.7 494,-86.7 383,-86.7"/>
<polygon fill="none" stroke="#000000" points="383,-86.7 383,-105.7 494,-105.7 494,-86.7 383,-86.7"/>
<text text-anchor="start" x="475.4053" y="-92.8" font-family="Helvetica,sans-Serif" font-size="11.00" fill="#000000">0 &gt;</text>
<polygon fill="none" stroke="#000000" stroke-width="2" points="287,-85.7 287,-239.7 495,-239.7 495,-85.7 287,-85.7"/>
</a>
</g>
</g>
<!-- commentaire&#45;&gt;article -->
<g id="edge2" class="edge">
<title>commentaire:w&#45;&gt;article:e</title>
<path fill="none" stroke="#000000" d="M273.7724,-186.622C260.9935,-194.7538 257.3394,-212.7 237,-212.7"/>
<polygon fill="#000000" stroke="#000000" points="280.2877,-184.826 288.9567,-186.1706 284.1438,-183.763 288,-182.7 288,-182.7 288,-182.7 284.1438,-183.763 287.0433,-179.2294 280.2877,-184.826 280.2877,-184.826"/>
<ellipse fill="none" stroke="#000000" cx="277.2027" cy="-185.6764" rx="3.2" ry="3.2"/>
</g>
<!-- utilisateur -->
<g id="node4" class="node">
<title>utilisateur</title>
<g id="a_node4"><a xlink:href="../../tables/utilisateur.html" xlink:title="utilisateur" target="_top">
<polygon fill="#ffffff" stroke="transparent" points="146,-38.2 146,-121.2 236,-121.2 236,-38.2 146,-38.2"/>
<polygon fill="#f5f5f5" stroke="transparent" points="146,-97.7 146,-120.7 236,-120.7 236,-97.7 146,-97.7"/>
<polygon fill="none" stroke="#000000" points="146,-97.7 146,-120.7 236,-120.7 236,-97.7 146,-97.7"/>
<text text-anchor="start" x="150.971" y="-106.8" font-family="Helvetica,sans-Serif" font-weight="bold" font-size="11.00" fill="#000000">utilisateur</text>
<text text-anchor="start" x="201.5219" y="-105.8" font-family="Helvetica,sans-Serif" font-size="11.00" fill="#000000">[table]</text>
<polygon fill="none" stroke="#000000" points="146,-75.7 146,-97.7 236,-97.7 236,-75.7 146,-75.7"/>
<image xlink:href="../../images/primaryKeys.png" width="11px" height="12px" preserveAspectRatio="xMinYMin meet" x="151" y="-92.7"/>
<text text-anchor="start" x="172" y="-82.8" font-family="Helvetica,sans-Serif" font-size="11.00" fill="#000000">id</text>
<polygon fill="none" stroke="#000000" points="146,-56.7 146,-75.7 236,-75.7 236,-56.7 146,-56.7"/>
<text text-anchor="start" x="149" y="-62.8" font-family="Helvetica,sans-Serif" font-size="11.00" fill="#000000">...</text>
<polygon fill="#ffffff" stroke="transparent" points="146,-37.7 146,-56.7 164,-56.7 164,-37.7 146,-37.7"/>
<polygon fill="none" stroke="#000000" points="146,-37.7 146,-56.7 164,-56.7 164,-37.7 146,-37.7"/>
<text text-anchor="start" x="149" y="-43.8" font-family="Helvetica,sans-Serif" font-size="11.00" fill="#000000"> &#160;</text>
<polygon fill="#ffffff" stroke="transparent" points="164,-37.7 164,-56.7 211,-56.7 211,-37.7 164,-37.7"/>
<polygon fill="none" stroke="#000000" points="164,-37.7 164,-56.7 211,-56.7 211,-37.7 164,-37.7"/>
<text text-anchor="start" x="169.4956" y="-43.8" font-family="Helvetica,sans-Serif" font-size="11.00" fill="#000000">51 rows</text>
<polygon fill="#ffffff" stroke="transparent" points="211,-37.7 211,-56.7 236,-56.7 236,-37.7 211,-37.7"/>
<polygon fill="none" stroke="#000000" points="211,-37.7 211,-56.7 236,-56.7 236,-37.7 211,-37.7"/>
<text text-anchor="start" x="217.4053" y="-43.8" font-family="Helvetica,sans-Serif" font-size="11.00" fill="#000000">1 &gt;</text>
</a>
</g>
</g>
<!-- commentaire&#45;&gt;utilisateur -->
<g id="edge3" class="edge">
<title>commentaire:w&#45;&gt;utilisateur:e</title>
<path fill="none" stroke="#000000" d="M273.9291,-113.0214C260.5728,-105.0105 256.8449,-86.7 236,-86.7"/>
<polygon fill="#000000" stroke="#000000" points="280.2601,-114.6765 287.0894,-120.1829 284.1301,-115.6883 288,-116.7 288,-116.7 288,-116.7 284.1301,-115.6883 288.9106,-113.2171 280.2601,-114.6765 280.2601,-114.6765"/>
<ellipse fill="none" stroke="#000000" cx="277.1642" cy="-113.8671" rx="3.2" ry="3.2"/>
</g>
</g>
</svg>
