<?xml version="1.0" encoding="UTF-8" standalone="no"?>
<!DOCTYPE svg PUBLIC "-//W3C//DTD SVG 1.1//EN"
 "http://www.w3.org/Graphics/SVG/1.1/DTD/svg11.dtd">
<!-- Generated by graphviz version 2.40.1 (20161225.0304)
 -->
<!-- Title: compactRelationshipsDiagram Pages: 1 -->
<svg width="408pt" height="259pt"
 viewBox="0.00 0.00 408.00 259.20" xmlns="http://www.w3.org/2000/svg" xmlns:xlink="http://www.w3.org/1999/xlink">
<g id="graph0" class="graph" transform="scale(1 1) rotate(0) translate(4 255.2)">
<title>compactRelationshipsDiagram</title>
<polygon fill="#ffffff" stroke="transparent" points="-4,4 -4,-255.2 404,-255.2 404,4 -4,4"/>
<text text-anchor="middle" x="72.4936" y="-7.3" font-family="Helvetica,sans-Serif" font-size="11.00" fill="#000000">Generated by SchemaSpy</text>
<!-- article -->
<g id="node1" class="node">
<title>article</title>
<g id="a_node1"><a xlink:href="../../tables/article.html" xlink:title="article" target="_top">
<polygon fill="#ffffff" stroke="transparent" points="145,-142.2 145,-247.2 237,-247.2 237,-142.2 145,-142.2"/>
<polygon fill="#f5f5f5" stroke="transparent" points="145,-223.7 145,-246.7 237,-246.7 237,-223.7 145,-223.7"/>
<polygon fill="none" stroke="#000000" points="145,-223.7 145,-246.7 237,-246.7 237,-223.7 145,-223.7"/>
<text text-anchor="start" x="150" y="-232.8" font-family="Helvetica,sans-Serif" font-weight="bold" font-size="11.00" fill="#000000">article</text>
<text text-anchor="start" x="202.0437" y="-231.8" font-family="Helvetica,sans-Serif" font-size="11.00" fill="#000000">[table]</text>
<polygon fill="none" stroke="#000000" points="145,-201.7 145,-223.7 237,-223.7 237,-201.7 145,-201.7"/>
<image xlink:href="../../images/primaryKeys.png" width="11px" height="12px" preserveAspectRatio="xMinYMin meet" x="150" y="-218.7"/>
<text text-anchor="start" x="166" y="-208.8" font-family="Helvetica,sans-Serif" font-size="11.00" fill="#000000">id</text>
<polygon fill="#ffffff" stroke="transparent" points="145,-179.7 145,-201.7 237,-201.7 237,-179.7 145,-179.7"/>
<polygon fill="none" stroke="#000000" points="145,-179.7 145,-201.7 237,-201.7 237,-179.7 145,-179.7"/>
<image xlink:href="../../images/foreignKeys.png" width="11px" height="12px" preserveAspectRatio="xMinYMin meet" x="150" y="-196.7"/>
<text text-anchor="start" x="166" y="-186.8" font-family="Helvetica,sans-Serif" font-size="11.00" fill="#000000">categorie_id</text>
<polygon fill="none" stroke="#000000" points="145,-160.7 145,-179.7 237,-179.7 237,-160.7 145,-160.7"/>
<text text-anchor="start" x="148" y="-166.8" font-family="Helvetica,sans-Serif" font-size="11.00" fill="#000000">...</text>
<polygon fill="#ffffff" stroke="transparent" points="145,-141.7 145,-160.7 166,-160.7 166,-141.7 145,-141.7"/>
<polygon fill="none" stroke="#000000" points="145,-141.7 145,-160.7 166,-160.7 166,-141.7 145,-141.7"/>
<text text-anchor="start" x="147.7027" y="-147.8" font-family="Helvetica,sans-Serif" font-size="11.00" fill="#000000">&lt; 1</text>
<polygon fill="#ffffff" stroke="transparent" points="166,-141.7 166,-160.7 216,-160.7 216,-141.7 166,-141.7"/>
<polygon fill="none" stroke="#000000" points="166,-141.7 166,-160.7 216,-160.7 216,-141.7 166,-141.7"/>
<text text-anchor="start" x="168.6904" y="-147.8" font-family="Helvetica,sans-Serif" font-size="11.00" fill="#000000">100 rows</text>
<polygon fill="#ffffff" stroke="transparent" points="216,-141.7 216,-160.7 237,-160.7 237,-141.7 216,-141.7"/>
<polygon fill="none" stroke="#000000" points="216,-141.7 216,-160.7 237,-160.7 237,-141.7 216,-141.7"/>
<text text-anchor="start" x="218.7027" y="-147.8" font-family="Helvetica,sans-Serif" font-size="11.00" fill="#000000">1 &gt;</text>
</a>
</g>
</g>
<!-- categorie -->
<g id="node2" class="node">
<title>categorie</title>
<g id="a_node2"><a xlink:href="../../tables/categorie.html" xlink:title="categorie" target="_top">
<polygon fill="#ffffff" stroke="transparent" points="8,-142.2 8,-225.2 96,-225.2 96,-142.2 8,-142.2"/>
<polygon fill="#f5f5f5" stroke="transparent" points="8,-201.7 8,-224.7 96,-224.7 96,-201.7 8,-201.7"/>
<polygon fill="none" stroke="#000000" points="8,-201.7 8,-224.7 96,-224.7 96,-201.7 8,-201.7"/>
<text text-anchor="start" x="12.8829" y="-210.8" font-family="Helvetica,sans-Serif" font-weight="bold" font-size="11.00" fill="#000000">categorie</text>
<text text-anchor="start" x="61.5219" y="-209.8" font-family="Helvetica,sans-Serif" font-size="11.00" fill="#000000">[table]</text>
<polygon fill="none" stroke="#000000" points="8,-179.7 8,-201.7 96,-201.7 96,-179.7 8,-179.7"/>
<image xlink:href="../../images/primaryKeys.png" width="11px" height="12px" preserveAspectRatio="xMinYMin meet" x="13" y="-196.7"/>
<text text-anchor="start" x="35" y="-186.8" font-family="Helvetica,sans-Serif" font-size="11.00" fill="#000000">id</text>
<polygon fill="none" stroke="#000000" points="8,-160.7 8,-179.7 96,-179.7 96,-160.7 8,-160.7"/>
<text text-anchor="start" x="11" y="-166.8" font-family="Helvetica,sans-Serif" font-size="11.00" fill="#000000">...</text>
<polygon fill="#ffffff" stroke="transparent" points="8,-141.7 8,-160.7 28,-160.7 28,-141.7 8,-141.7"/>
<polygon fill="none" stroke="#000000" points="8,-141.7 8,-160.7 28,-160.7 28,-141.7 8,-141.7"/>
<text text-anchor="start" x="11" y="-147.8" font-family="Helvetica,sans-Serif" font-size="11.00" fill="#000000"> &#160;</text>
<polygon fill="#ffffff" stroke="transparent" points="28,-141.7 28,-160.7 70,-160.7 70,-141.7 28,-141.7"/>
<polygon fill="none" stroke="#000000" points="28,-141.7 28,-160.7 70,-160.7 70,-141.7 28,-141.7"/>
<text text-anchor="start" x="34.6105" y="-147.8" font-family="Helvetica,sans-Serif" font-size="11.00" fill="#000000">9 rows</text>
<polygon fill="#ffffff" stroke="transparent" points="70,-141.7 70,-160.7 96,-160.7 96,-141.7 70,-141.7"/>
<polygon fill="none" stroke="#000000" points="70,-141.7 70,-160.7 96,-160.7 96,-141.7 70,-141.7"/>
<text text-anchor="start" x="77.4053" y="-147.8" font-family="Helvetica,sans-Serif" font-size="11.00" fill="#000000">1 &gt;</text>
</a>
</g>
</g>
<!-- article&#45;&gt;categorie -->
<g id="edge1" class="edge">
<title>article:w&#45;&gt;categorie:e</title>
<path fill="none" stroke="#000000" d="M130.4909,-190.7C119.1774,-190.7 111.9931,-190.7 96,-190.7"/>
<polygon fill="#000000" stroke="#000000" points="137,-190.7001 145,-194.3 141,-190.7 145,-190.7 145,-190.7 145,-190.7 141,-190.7 145,-187.1 137,-190.7001 137,-190.7001"/>
<ellipse fill="none" stroke="#000000" cx="133.8" cy="-190.7001" rx="3.2" ry="3.2"/>
</g>
<!-- commentaire -->
<g id="node3" class="node">
<title>commentaire</title>
<g id="a_node3"><a xlink:href="../../tables/commentaire.html" xlink:title="commentaire" target="_top">
<polygon fill="#ffffff" stroke="transparent" points="286,-90.2 286,-217.2 392,-217.2 392,-90.2 286,-90.2"/>
<polygon fill="#f5f5f5" stroke="transparent" points="286,-193.7 286,-216.7 392,-216.7 392,-193.7 286,-193.7"/>
<polygon fill="none" stroke="#000000" points="286,-193.7 286,-216.7 392,-216.7 392,-193.7 286,-193.7"/>
<text text-anchor="start" x="290.721" y="-202.8" font-family="Helvetica,sans-Serif" font-weight="bold" font-size="11.00" fill="#000000">commentaire</text>
<text text-anchor="start" x="357.5219" y="-201.8" font-family="Helvetica,sans-Serif" font-size="11.00" fill="#000000">[table]</text>
<polygon fill="none" stroke="#000000" points="286,-171.7 286,-193.7 392,-193.7 392,-171.7 286,-171.7"/>
<image xlink:href="../../images/primaryKeys.png" width="11px" height="12px" preserveAspectRatio="xMinYMin meet" x="291" y="-188.7"/>
<text text-anchor="start" x="312" y="-178.8" font-family="Helvetica,sans-Serif" font-size="11.00" fill="#000000">id</text>
<polygon fill="#ffffff" stroke="transparent" points="286,-149.7 286,-171.7 392,-171.7 392,-149.7 286,-149.7"/>
<polygon fill="none" stroke="#000000" points="286,-149.7 286,-171.7 392,-171.7 392,-149.7 286,-149.7"/>
<image xlink:href="../../images/foreignKeys.png" width="11px" height="12px" preserveAspectRatio="xMinYMin meet" x="291" y="-166.7"/>
<text text-anchor="start" x="312" y="-156.8" font-family="Helvetica,sans-Serif" font-size="11.00" fill="#000000">article_id</text>
<polygon fill="#ffffff" stroke="transparent" points="286,-127.7 286,-149.7 392,-149.7 392,-127.7 286,-127.7"/>
<polygon fill="none" stroke="#000000" points="286,-127.7 286,-149.7 392,-149.7 392,-127.7 286,-127.7"/>
<image xlink:href="../../images/foreignKeys.png" width="11px" height="12px" preserveAspectRatio="xMinYMin meet" x="291" y="-144.7"/>
<text text-anchor="start" x="312" y="-134.8" font-family="Helvetica,sans-Serif" font-size="11.00" fill="#000000">utilisateur_id</text>
<polygon fill="none" stroke="#000000" points="286,-108.7 286,-127.7 392,-127.7 392,-108.7 286,-108.7"/>
<text text-anchor="start" x="289" y="-114.8" font-family="Helvetica,sans-Serif" font-size="11.00" fill="#000000">...</text>
<polygon fill="#ffffff" stroke="transparent" points="286,-89.7 286,-108.7 318,-108.7 318,-89.7 286,-89.7"/>
<polygon fill="none" stroke="#000000" points="286,-89.7 286,-108.7 318,-108.7 318,-89.7 286,-89.7"/>
<text text-anchor="start" x="289" y="-95.8" font-family="Helvetica,sans-Serif" font-size="11.00" fill="#000000">&lt; 2</text>
<polygon fill="#ffffff" stroke="transparent" points="318,-89.7 318,-108.7 374,-108.7 374,-89.7 318,-89.7"/>
<polygon fill="none" stroke="#000000" points="318,-89.7 318,-108.7 374,-108.7 374,-89.7 318,-89.7"/>
<text text-anchor="start" x="326.3807" y="-95.8" font-family="Helvetica,sans-Serif" font-size="11.00" fill="#000000">500 rows</text>
<polygon fill="#ffffff" stroke="transparent" points="374,-89.7 374,-108.7 392,-108.7 392,-89.7 374,-89.7"/>
<polygon fill="none" stroke="#000000" points="374,-89.7 374,-108.7 392,-108.7 392,-89.7 374,-89.7"/>
<text text-anchor="start" x="382.8862" y="-95.8" font-family="Helvetica,sans-Serif" font-size="11.00" fill="#000000"> &#160;</text>
</a>
</g>
</g>
<!-- commentaire&#45;&gt;article -->
<g id="edge2" class="edge">
<title>commentaire:w&#45;&gt;article:e</title>
<path fill="none" stroke="#000000" d="M272.4073,-165.4988C258.0597,-178.3719 262.8011,-212.7 237,-212.7"/>
<polygon fill="#000000" stroke="#000000" points="278.4563,-163.3633 287.1985,-164.0947 282.2282,-162.0316 286,-160.7 286,-160.7 286,-160.7 282.2282,-162.0316 284.8015,-157.3053 278.4563,-163.3633 278.4563,-163.3633"/>
<ellipse fill="none" stroke="#000000" cx="275.4388" cy="-164.4286" rx="3.2" ry="3.2"/>
</g>
<!-- utilisateur -->
<g id="node4" class="node">
<title>utilisateur</title>
<g id="a_node4"><a xlink:href="../../tables/utilisateur.html" xlink:title="utilisateur" target="_top">
<polygon fill="#ffffff" stroke="transparent" points="146,-38.2 146,-121.2 236,-121.2 236,-38.2 146,-38.2"/>
<polygon fill="#f5f5f5" stroke="transparent" points="146,-97.7 146,-120.7 236,-120.7 236,-97.7 146,-97.7"/>
<polygon fill="none" stroke="#000000" points="146,-97.7 146,-120.7 236,-120.7 236,-97.7 146,-97.7"/>
<text text-anchor="start" x="150.971" y="-106.8" font-family="Helvetica,sans-Serif" font-weight="bold" font-size="11.00" fill="#000000">utilisateur</text>
<text text-anchor="start" x="201.5219" y="-105.8" font-family="Helvetica,sans-Serif" font-size="11.00" fill="#000000">[table]</text>
<polygon fill="none" stroke="#000000" points="146,-75.7 146,-97.7 236,-97.7 236,-75.7 146,-75.7"/>
<image xlink:href="../../images/primaryKeys.png" width="11px" height="12px" preserveAspectRatio="xMinYMin meet" x="151" y="-92.7"/>
<text text-anchor="start" x="172" y="-82.8" font-family="Helvetica,sans-Serif" font-size="11.00" fill="#000000">id</text>
<polygon fill="none" stroke="#000000" points="146,-56.7 146,-75.7 236,-75.7 236,-56.7 146,-56.7"/>
<text text-anchor="start" x="149" y="-62.8" font-family="Helvetica,sans-Serif" font-size="11.00" fill="#000000">...</text>
<polygon fill="#ffffff" stroke="transparent" points="146,-37.7 146,-56.7 164,-56.7 164,-37.7 146,-37.7"/>
<polygon fill="none" stroke="#000000" points="146,-37.7 146,-56.7 164,-56.7 164,-37.7 146,-37.7"/>
<text text-anchor="start" x="149" y="-43.8" font-family="Helvetica,sans-Serif" font-size="11.00" fill="#000000"> &#160;</text>
<polygon fill="#ffffff" stroke="transparent" points="164,-37.7 164,-56.7 211,-56.7 211,-37.7 164,-37.7"/>
<polygon fill="none" stroke="#000000" points="164,-37.7 164,-56.7 211,-56.7 211,-37.7 164,-37.7"/>
<text text-anchor="start" x="169.4956" y="-43.8" font-family="Helvetica,sans-Serif" font-size="11.00" fill="#000000">51 rows</text>
<polygon fill="#ffffff" stroke="transparent" points="211,-37.7 211,-56.7 236,-56.7 236,-37.7 211,-37.7"/>
<polygon fill="none" stroke="#000000" points="211,-37.7 211,-56.7 236,-56.7 236,-37.7 211,-37.7"/>
<text text-anchor="start" x="217.4053" y="-43.8" font-family="Helvetica,sans-Serif" font-size="11.00" fill="#000000">1 &gt;</text>
</a>
</g>
</g>
<!-- commentaire&#45;&gt;utilisateur -->
<g id="edge3" class="edge">
<title>commentaire:w&#45;&gt;utilisateur:e</title>
<path fill="none" stroke="#000000" d="M272.2275,-133.9012C257.6109,-121.0281 262.0501,-86.7 236,-86.7"/>
<polygon fill="#000000" stroke="#000000" points="278.4455,-136.0677 284.8155,-142.0995 282.2227,-137.3838 286,-138.7 286,-138.7 286,-138.7 282.2227,-137.3838 287.1845,-135.3005 278.4455,-136.0677 278.4455,-136.0677"/>
<ellipse fill="none" stroke="#000000" cx="275.4236" cy="-135.0148" rx="3.2" ry="3.2"/>
</g>
</g>
</svg>
