<?xml version="1.0" encoding="UTF-8" standalone="no"?>
<!DOCTYPE svg PUBLIC "-//W3C//DTD SVG 1.1//EN"
 "http://www.w3.org/Graphics/SVG/1.1/DTD/svg11.dtd">
<!-- Generated by graphviz version 2.40.1 (20161225.0304)
 -->
<!-- Title: largeRelationshipsDiagram Pages: 1 -->
<svg width="408pt" height="397pt"
 viewBox="0.00 0.00 408.00 397.20" xmlns="http://www.w3.org/2000/svg" xmlns:xlink="http://www.w3.org/1999/xlink">
<g id="graph0" class="graph" transform="scale(1 1) rotate(0) translate(4 393.2)">
<title>largeRelationshipsDiagram</title>
<polygon fill="#ffffff" stroke="transparent" points="-4,4 -4,-393.2 404,-393.2 404,4 -4,4"/>
<text text-anchor="middle" x="72.4936" y="-7.3" font-family="Helvetica,sans-Serif" font-size="11.00" fill="#000000">Generated by SchemaSpy</text>
<!-- article -->
<g id="node1" class="node">
<title>article</title>
<g id="a_node1"><a xlink:href="../../tables/article.html" xlink:title="article" target="_top">
<polygon fill="#ffffff" stroke="transparent" points="145,-189.2 145,-385.2 237,-385.2 237,-189.2 145,-189.2"/>
<polygon fill="#f5f5f5" stroke="transparent" points="145,-362.2 145,-385.2 237,-385.2 237,-362.2 145,-362.2"/>
<polygon fill="none" stroke="#000000" points="145,-362.2 145,-385.2 237,-385.2 237,-362.2 145,-362.2"/>
<text text-anchor="start" x="150" y="-371.3" font-family="Helvetica,sans-Serif" font-weight="bold" font-size="11.00" fill="#000000">article</text>
<text text-anchor="start" x="202.0437" y="-370.3" font-family="Helvetica,sans-Serif" font-size="11.00" fill="#000000">[table]</text>
<polygon fill="none" stroke="#000000" points="145,-340.2 145,-362.2 237,-362.2 237,-340.2 145,-340.2"/>
<image xlink:href="../../images/primaryKeys.png" width="11px" height="12px" preserveAspectRatio="xMinYMin meet" x="150" y="-357.2"/>
<text text-anchor="start" x="166" y="-347.3" font-family="Helvetica,sans-Serif" font-size="11.00" fill="#000000">id</text>
<polygon fill="none" stroke="#000000" points="145,-318.2 145,-340.2 237,-340.2 237,-318.2 145,-318.2"/>
<text text-anchor="start" x="166" y="-325.3" font-family="Helvetica,sans-Serif" font-size="11.00" fill="#000000">titre</text>
<polygon fill="none" stroke="#000000" points="145,-296.2 145,-318.2 237,-318.2 237,-296.2 145,-296.2"/>
<text text-anchor="start" x="166" y="-303.3" font-family="Helvetica,sans-Serif" font-size="11.00" fill="#000000">contenu</text>
<polygon fill="none" stroke="#000000" points="145,-274.2 145,-296.2 237,-296.2 237,-274.2 145,-274.2"/>
<text text-anchor="start" x="166" y="-281.3" font-family="Helvetica,sans-Serif" font-size="11.00" fill="#000000">createdat</text>
<polygon fill="none" stroke="#000000" points="145,-252.2 145,-274.2 237,-274.2 237,-252.2 145,-252.2"/>
<text text-anchor="start" x="166" y="-259.3" font-family="Helvetica,sans-Serif" font-size="11.00" fill="#000000">slug</text>
<polygon fill="#ffffff" stroke="transparent" points="145,-230.2 145,-252.2 237,-252.2 237,-230.2 145,-230.2"/>
<polygon fill="none" stroke="#000000" points="145,-230.2 145,-252.2 237,-252.2 237,-230.2 145,-230.2"/>
<image xlink:href="../../images/foreignKeys.png" width="11px" height="12px" preserveAspectRatio="xMinYMin meet" x="150" y="-247.2"/>
<text text-anchor="start" x="166" y="-237.3" font-family="Helvetica,sans-Serif" font-size="11.00" fill="#000000">categorie_id</text>
<polygon fill="none" stroke="#000000" points="145,-208.2 145,-230.2 237,-230.2 237,-208.2 145,-208.2"/>
<text text-anchor="start" x="166" y="-215.3" font-family="Helvetica,sans-Serif" font-size="11.00" fill="#000000">publie</text>
<polygon fill="#ffffff" stroke="transparent" points="145,-189.2 145,-208.2 166,-208.2 166,-189.2 145,-189.2"/>
<polygon fill="none" stroke="#000000" points="145,-189.2 145,-208.2 166,-208.2 166,-189.2 145,-189.2"/>
<text text-anchor="start" x="147.7027" y="-195.3" font-family="Helvetica,sans-Serif" font-size="11.00" fill="#000000">&lt; 1</text>
<polygon fill="#ffffff" stroke="transparent" points="166,-189.2 166,-208.2 216,-208.2 216,-189.2 166,-189.2"/>
<polygon fill="none" stroke="#000000" points="166,-189.2 166,-208.2 216,-208.2 216,-189.2 166,-189.2"/>
<text text-anchor="start" x="168.6904" y="-195.3" font-family="Helvetica,sans-Serif" font-size="11.00" fill="#000000">100 rows</text>
<polygon fill="#ffffff" stroke="transparent" points="216,-189.2 216,-208.2 237,-208.2 237,-189.2 216,-189.2"/>
<polygon fill="none" stroke="#000000" points="216,-189.2 216,-208.2 237,-208.2 237,-189.2 216,-189.2"/>
<text text-anchor="start" x="218.7027" y="-195.3" font-family="Helvetica,sans-Serif" font-size="11.00" fill="#000000">1 &gt;</text>
</a>
</g>
</g>
<!-- categorie -->
<g id="node2" class="node">
<title>categorie</title>
<g id="a_node2"><a xlink:href="../../tables/categorie.html" xlink:title="categorie" target="_top">
<polygon fill="#ffffff" stroke="transparent" points="8,-167.2 8,-275.2 96,-275.2 96,-167.2 8,-167.2"/>
<polygon fill="#f5f5f5" stroke="transparent" points="8,-252.2 8,-275.2 96,-275.2 96,-252.2 8,-252.2"/>
<polygon fill="none" stroke="#000000" points="8,-252.2 8,-275.2 96,-275.2 96,-252.2 8,-252.2"/>
<text text-anchor="start" x="12.8829" y="-261.3" font-family="Helvetica,sans-Serif" font-weight="bold" font-size="11.00" fill="#000000">categorie</text>
<text text-anchor="start" x="61.5219" y="-260.3" font-family="Helvetica,sans-Serif" font-size="11.00" fill="#000000">[table]</text>
<polygon fill="none" stroke="#000000" points="8,-230.2 8,-252.2 96,-252.2 96,-230.2 8,-230.2"/>
<image xlink:href="../../images/primaryKeys.png" width="11px" height="12px" preserveAspectRatio="xMinYMin meet" x="13" y="-247.2"/>
<text text-anchor="start" x="35" y="-237.3" font-family="Helvetica,sans-Serif" font-size="11.00" fill="#000000">id</text>
<polygon fill="none" stroke="#000000" points="8,-208.2 8,-230.2 96,-230.2 96,-208.2 8,-208.2"/>
<text text-anchor="start" x="35" y="-215.3" font-family="Helvetica,sans-Serif" font-size="11.00" fill="#000000">titre</text>
<polygon fill="none" stroke="#000000" points="8,-186.2 8,-208.2 96,-208.2 96,-186.2 8,-186.2"/>
<text text-anchor="start" x="35" y="-193.3" font-family="Helvetica,sans-Serif" font-size="11.00" fill="#000000">slug</text>
<polygon fill="#ffffff" stroke="transparent" points="8,-167.2 8,-186.2 28,-186.2 28,-167.2 8,-167.2"/>
<polygon fill="none" stroke="#000000" points="8,-167.2 8,-186.2 28,-186.2 28,-167.2 8,-167.2"/>
<text text-anchor="start" x="11" y="-173.3" font-family="Helvetica,sans-Serif" font-size="11.00" fill="#000000"> &#160;</text>
<polygon fill="#ffffff" stroke="transparent" points="28,-167.2 28,-186.2 70,-186.2 70,-167.2 28,-167.2"/>
<polygon fill="none" stroke="#000000" points="28,-167.2 28,-186.2 70,-186.2 70,-167.2 28,-167.2"/>
<text text-anchor="start" x="34.6105" y="-173.3" font-family="Helvetica,sans-Serif" font-size="11.00" fill="#000000">9 rows</text>
<polygon fill="#ffffff" stroke="transparent" points="70,-167.2 70,-186.2 96,-186.2 96,-167.2 70,-167.2"/>
<polygon fill="none" stroke="#000000" points="70,-167.2 70,-186.2 96,-186.2 96,-167.2 70,-167.2"/>
<text text-anchor="start" x="77.4053" y="-173.3" font-family="Helvetica,sans-Serif" font-size="11.00" fill="#000000">1 &gt;</text>
</a>
</g>
</g>
<!-- article&#45;&gt;categorie -->
<g id="edge1" class="edge">
<title>article:w&#45;&gt;categorie:e</title>
<path fill="none" stroke="#000000" d="M130.4909,-241.2C119.1774,-241.2 111.9931,-241.2 96,-241.2"/>
<polygon fill="#000000" stroke="#000000" points="137,-241.2001 145,-244.8 141,-241.2 145,-241.2 145,-241.2 145,-241.2 141,-241.2 145,-237.6 137,-241.2001 137,-241.2001"/>
<ellipse fill="none" stroke="#000000" cx="133.8" cy="-241.2001" rx="3.2" ry="3.2"/>
</g>
<!-- commentaire -->
<g id="node3" class="node">
<title>commentaire</title>
<g id="a_node3"><a xlink:href="../../tables/commentaire.html" xlink:title="commentaire" target="_top">
<polygon fill="#ffffff" stroke="transparent" points="286,-179.2 286,-331.2 392,-331.2 392,-179.2 286,-179.2"/>
<polygon fill="#f5f5f5" stroke="transparent" points="286,-308.2 286,-331.2 392,-331.2 392,-308.2 286,-308.2"/>
<polygon fill="none" stroke="#000000" points="286,-308.2 286,-331.2 392,-331.2 392,-308.2 286,-308.2"/>
<text text-anchor="start" x="290.721" y="-317.3" font-family="Helvetica,sans-Serif" font-weight="bold" font-size="11.00" fill="#000000">commentaire</text>
<text text-anchor="start" x="357.5219" y="-316.3" font-family="Helvetica,sans-Serif" font-size="11.00" fill="#000000">[table]</text>
<polygon fill="none" stroke="#000000" points="286,-286.2 286,-308.2 392,-308.2 392,-286.2 286,-286.2"/>
<image xlink:href="../../images/primaryKeys.png" width="11px" height="12px" preserveAspectRatio="xMinYMin meet" x="291" y="-303.2"/>
<text text-anchor="start" x="312" y="-293.3" font-family="Helvetica,sans-Serif" font-size="11.00" fill="#000000">id</text>
<polygon fill="#ffffff" stroke="transparent" points="286,-264.2 286,-286.2 392,-286.2 392,-264.2 286,-264.2"/>
<polygon fill="none" stroke="#000000" points="286,-264.2 286,-286.2 392,-286.2 392,-264.2 286,-264.2"/>
<image xlink:href="../../images/foreignKeys.png" width="11px" height="12px" preserveAspectRatio="xMinYMin meet" x="291" y="-281.2"/>
<text text-anchor="start" x="312" y="-271.3" font-family="Helvetica,sans-Serif" font-size="11.00" fill="#000000">article_id</text>
<polygon fill="none" stroke="#000000" points="286,-242.2 286,-264.2 392,-264.2 392,-242.2 286,-242.2"/>
<text text-anchor="start" x="312" y="-249.3" font-family="Helvetica,sans-Serif" font-size="11.00" fill="#000000">contenu</text>
<polygon fill="none" stroke="#000000" points="286,-220.2 286,-242.2 392,-242.2 392,-220.2 286,-220.2"/>
<text text-anchor="start" x="312" y="-227.3" font-family="Helvetica,sans-Serif" font-size="11.00" fill="#000000">created_at</text>
<polygon fill="#ffffff" stroke="transparent" points="286,-198.2 286,-220.2 392,-220.2 392,-198.2 286,-198.2"/>
<polygon fill="none" stroke="#000000" points="286,-198.2 286,-220.2 392,-220.2 392,-198.2 286,-198.2"/>
<image xlink:href="../../images/foreignKeys.png" width="11px" height="12px" preserveAspectRatio="xMinYMin meet" x="291" y="-215.2"/>
<text text-anchor="start" x="312" y="-205.3" font-family="Helvetica,sans-Serif" font-size="11.00" fill="#000000">utilisateur_id</text>
<polygon fill="#ffffff" stroke="transparent" points="286,-179.2 286,-198.2 318,-198.2 318,-179.2 286,-179.2"/>
<polygon fill="none" stroke="#000000" points="286,-179.2 286,-198.2 318,-198.2 318,-179.2 286,-179.2"/>
<text text-anchor="start" x="289" y="-185.3" font-family="Helvetica,sans-Serif" font-size="11.00" fill="#000000">&lt; 2</text>
<polygon fill="#ffffff" stroke="transparent" points="318,-179.2 318,-198.2 374,-198.2 374,-179.2 318,-179.2"/>
<polygon fill="none" stroke="#000000" points="318,-179.2 318,-198.2 374,-198.2 374,-179.2 318,-179.2"/>
<text text-anchor="start" x="326.3807" y="-185.3" font-family="Helvetica,sans-Serif" font-size="11.00" fill="#000000">500 rows</text>
<polygon fill="#ffffff" stroke="transparent" points="374,-179.2 374,-198.2 392,-198.2 392,-179.2 374,-179.2"/>
<polygon fill="none" stroke="#000000" points="374,-179.2 374,-198.2 392,-198.2 392,-179.2 374,-179.2"/>
<text text-anchor="start" x="382.8862" y="-185.3" font-family="Helvetica,sans-Serif" font-size="11.00" fill="#000000"> &#160;</text>
</a>
</g>
</g>
<!-- commentaire&#45;&gt;article -->
<g id="edge2" class="edge">
<title>commentaire:w&#45;&gt;article:e</title>
<path fill="none" stroke="#000000" d="M272.109,-279.9541C253.7102,-296.5924 271.067,-351.2 237,-351.2"/>
<polygon fill="#000000" stroke="#000000" points="278.431,-277.7905 287.1657,-278.606 282.2155,-276.4952 286,-275.2 286,-275.2 286,-275.2 282.2155,-276.4952 284.8343,-271.794 278.431,-277.7905 278.431,-277.7905"/>
<ellipse fill="none" stroke="#000000" cx="275.4034" cy="-278.8267" rx="3.2" ry="3.2"/>
</g>
<!-- utilisateur -->
<g id="node4" class="node">
<title>utilisateur</title>
<g id="a_node4"><a xlink:href="../../tables/utilisateur.html" xlink:title="utilisateur" target="_top">
<polygon fill="#ffffff" stroke="transparent" points="146,-38.2 146,-168.2 236,-168.2 236,-38.2 146,-38.2"/>
<polygon fill="#f5f5f5" stroke="transparent" points="146,-145.2 146,-168.2 236,-168.2 236,-145.2 146,-145.2"/>
<polygon fill="none" stroke="#000000" points="146,-145.2 146,-168.2 236,-168.2 236,-145.2 146,-145.2"/>
<text text-anchor="start" x="150.971" y="-154.3" font-family="Helvetica,sans-Serif" font-weight="bold" font-size="11.00" fill="#000000">utilisateur</text>
<text text-anchor="start" x="201.5219" y="-153.3" font-family="Helvetica,sans-Serif" font-size="11.00" fill="#000000">[table]</text>
<polygon fill="none" stroke="#000000" points="146,-123.2 146,-145.2 236,-145.2 236,-123.2 146,-123.2"/>
<image xlink:href="../../images/primaryKeys.png" width="11px" height="12px" preserveAspectRatio="xMinYMin meet" x="151" y="-140.2"/>
<text text-anchor="start" x="172" y="-130.3" font-family="Helvetica,sans-Serif" font-size="11.00" fill="#000000">id</text>
<polygon fill="none" stroke="#000000" points="146,-101.2 146,-123.2 236,-123.2 236,-101.2 146,-101.2"/>
<text text-anchor="start" x="172" y="-108.3" font-family="Helvetica,sans-Serif" font-size="11.00" fill="#000000">prenom</text>
<polygon fill="none" stroke="#000000" points="146,-79.2 146,-101.2 236,-101.2 236,-79.2 146,-79.2"/>
<text text-anchor="start" x="172" y="-86.3" font-family="Helvetica,sans-Serif" font-size="11.00" fill="#000000">nom</text>
<polygon fill="none" stroke="#000000" points="146,-57.2 146,-79.2 236,-79.2 236,-57.2 146,-57.2"/>
<text text-anchor="start" x="172" y="-64.3" font-family="Helvetica,sans-Serif" font-size="11.00" fill="#000000">pseudo</text>
<polygon fill="#ffffff" stroke="transparent" points="146,-38.2 146,-57.2 164,-57.2 164,-38.2 146,-38.2"/>
<polygon fill="none" stroke="#000000" points="146,-38.2 146,-57.2 164,-57.2 164,-38.2 146,-38.2"/>
<text text-anchor="start" x="149" y="-44.3" font-family="Helvetica,sans-Serif" font-size="11.00" fill="#000000"> &#160;</text>
<polygon fill="#ffffff" stroke="transparent" points="164,-38.2 164,-57.2 211,-57.2 211,-38.2 164,-38.2"/>
<polygon fill="none" stroke="#000000" points="164,-38.2 164,-57.2 211,-57.2 211,-38.2 164,-38.2"/>
<text text-anchor="start" x="169.4956" y="-44.3" font-family="Helvetica,sans-Serif" font-size="11.00" fill="#000000">51 rows</text>
<polygon fill="#ffffff" stroke="transparent" points="211,-38.2 211,-57.2 236,-57.2 236,-38.2 211,-38.2"/>
<polygon fill="none" stroke="#000000" points="211,-38.2 211,-57.2 236,-57.2 236,-38.2 211,-38.2"/>
<text text-anchor="start" x="217.4053" y="-44.3" font-family="Helvetica,sans-Serif" font-size="11.00" fill="#000000">1 &gt;</text>
</a>
</g>
</g>
<!-- commentaire&#45;&gt;utilisateur -->
<g id="edge3" class="edge">
<title>commentaire:w&#45;&gt;utilisateur:e</title>
<path fill="none" stroke="#000000" d="M272.0809,-204.5084C253.4876,-188.0891 269.9585,-134.2 236,-134.2"/>
<polygon fill="#000000" stroke="#000000" points="278.4191,-206.6447 284.8501,-212.6114 282.2095,-207.9224 286,-209.2 286,-209.2 286,-209.2 282.2095,-207.9224 287.1499,-205.7886 278.4191,-206.6447 278.4191,-206.6447"/>
<ellipse fill="none" stroke="#000000" cx="275.3867" cy="-205.6226" rx="3.2" ry="3.2"/>
</g>
</g>
</svg>
